<svg width="124" height="120" viewBox="0 0 124 120" fill="none" xmlns="http://www.w3.org/2000/svg">
<path d="M2 60C2 26.8629 28.8629 0 62 0C95.1371 0 122 26.8629 122 60C122 93.1371 95.1371 120 62 120C28.8629 120 2 93.1371 2 60Z" fill="#D6EAF5"/>
<g clip-path="url(#clip0_36_2534)">
<g clip-path="url(#clip1_36_2534)">
<path d="M110.123 49.8219L43.5454 44.1048L38.7162 100.343L105.294 106.06L110.123 49.8219Z" fill="#0083CA"/>
<path d="M83.8141 47.563L17.2363 41.8459L12.4071 98.084L78.9849 103.801L83.8141 47.563Z" fill="#00A8DE"/>
<path fill-rule="evenodd" clip-rule="evenodd" d="M26.132 45.4393C29.7296 48.6087 31.8296 53.383 31.3884 58.5207C30.6549 67.0624 23.1709 73.4167 14.642 72.779L17.0566 44.66L26.132 45.4393Z" fill="#0083CA"/>
<path fill-rule="evenodd" clip-rule="evenodd" d="M38.5235 84.4009C38.5826 83.7125 38.0725 83.1065 37.3841 83.0474C33.7915 82.7389 23.4436 81.8503 19.851 81.5418C19.1626 81.4827 18.5566 81.9929 18.4975 82.6813C18.2853 85.1521 17.8136 90.6452 17.6014 93.116C17.5423 93.8044 18.0524 94.4105 18.7409 94.4696C22.3335 94.7781 32.6814 95.6667 36.274 95.9752C36.9624 96.0343 37.5684 95.5241 37.6275 94.8357C37.8397 92.3649 38.3114 86.8717 38.5235 84.4009Z" fill="white"/>
<path d="M96.2682 45.7611H95.6826V102.206H96.2682V45.7611Z" fill="#0958A0"/>
</g>
</g>
<path d="M110.124 49.8216L83.8135 47.5623L96.851 31.3954L123.162 33.6547L110.124 49.8216Z" fill="#0958A0"/>
<path d="M17.2357 41.8452L83.8135 47.5623L73.723 29.4093L7.14522 23.6922L17.2357 41.8452Z" fill="#0083CA"/>
<path d="M15.2125 69.6467C23.4819 69.6467 30.1857 62.943 30.1857 54.6735C30.1857 46.4041 23.4819 39.7003 15.2125 39.7003C6.94299 39.7003 0.239258 46.4041 0.239258 54.6735C0.239258 62.943 6.94299 69.6467 15.2125 69.6467Z" fill="#FFB612"/>
<path d="M15.2039 62.0304C13.4503 62.0304 12.1511 61.4224 11.3063 60.2064C10.4615 58.9904 10.0391 57.288 10.0391 55.0992C10.0391 52.9104 10.4615 51.208 11.3063 49.992C12.1511 48.776 13.4503 48.168 15.2039 48.168C16.9575 48.168 18.2567 48.776 19.1015 49.992C19.9463 51.208 20.3687 52.9104 20.3687 55.0992C20.3687 57.288 19.9463 58.9904 19.1015 60.2064C18.2567 61.4224 16.9575 62.0304 15.2039 62.0304ZM15.2039 59.592C15.9719 59.592 16.5031 59.3104 16.7975 58.7472C17.0919 58.184 17.2391 57.3904 17.2391 56.3664V53.832C17.2391 52.808 17.0919 52.0144 16.7975 51.4512C16.5031 50.888 15.9719 50.6064 15.2039 50.6064C14.4359 50.6064 13.9047 50.888 13.6103 51.4512C13.3159 52.0144 13.1687 52.808 13.1687 53.832V56.3664C13.1687 57.3904 13.3159 58.184 13.6103 58.7472C13.9047 59.3104 14.4359 59.592 15.2039 59.592Z" fill="white"/>
<defs>
<clipPath id="clip0_36_2534">
<path d="M2 60C2 26.8629 28.8629 0 62 0C95.1371 0 122 26.8629 122 60C122 93.1371 95.1371 120 62 120C28.8629 120 2 93.1371 2 60Z" fill="white"/>
</clipPath>
<clipPath id="clip1_36_2534">
<rect width="146.4" height="146.4" fill="white" transform="translate(-11.2002 -13.2)"/>
</clipPath>
</defs>
</svg>
