<svg width="14" height="14" viewBox="0 0 14 14" fill="none" xmlns="http://www.w3.org/2000/svg">
<path d="M9.06559 7.42252L7.66683 6.61523V3.66666C7.66683 3.48985 7.59659 3.32028 7.47157 3.19526C7.34655 3.07023 7.17698 2.99999 7.00017 2.99999C6.82336 2.99999 6.65379 3.07023 6.52876 3.19526C6.40374 3.32028 6.3335 3.48985 6.3335 3.66666V7C6.33347 7.11704 6.36426 7.23203 6.42277 7.33341C6.48129 7.43478 6.56546 7.51895 6.66683 7.57747L8.39893 8.57747C8.47476 8.6213 8.55849 8.64975 8.64533 8.66121C8.73217 8.67267 8.82041 8.6669 8.90502 8.64425C8.98963 8.62159 9.06895 8.58249 9.13844 8.52917C9.20793 8.47585 9.26624 8.40936 9.31003 8.3335C9.35382 8.25764 9.38223 8.1739 9.39364 8.08705C9.40506 8.00021 9.39925 7.91197 9.37655 7.82737C9.35385 7.74277 9.3147 7.66347 9.26135 7.59401C9.20799 7.52454 9.14147 7.46627 9.06559 7.42252ZM7.00017 0.333328C5.68162 0.333328 4.39269 0.724321 3.29636 1.45686C2.20004 2.18941 1.34555 3.2306 0.840969 4.44877C0.336385 5.66695 0.204362 7.00739 0.461597 8.3006C0.718832 9.5938 1.35377 10.7817 2.28612 11.714C3.21847 12.6464 4.40636 13.2813 5.69956 13.5386C6.99277 13.7958 8.33322 13.6638 9.55139 13.1592C10.7696 12.6546 11.8108 11.8001 12.5433 10.7038C13.2758 9.60747 13.6668 8.31854 13.6668 7C13.6649 5.23249 12.9619 3.53794 11.712 2.28812C10.4622 1.0383 8.76767 0.335294 7.00017 0.333328ZM7.00017 12.3333C5.94533 12.3333 4.91419 12.0205 4.03712 11.4345C3.16006 10.8485 2.47648 10.0155 2.07281 9.04097C1.66914 8.06643 1.56352 6.99408 1.76931 5.95951C1.9751 4.92495 2.48305 3.97464 3.22893 3.22876C3.97481 2.48288 4.92512 1.97493 5.95968 1.76914C6.99425 1.56335 8.06661 1.66897 9.04114 2.07264C10.0157 2.47631 10.8486 3.15989 11.4347 4.03695C12.0207 4.91402 12.3335 5.94516 12.3335 7C12.3319 8.41399 11.7695 9.7696 10.7696 10.7694C9.76977 11.7693 8.41416 12.3317 7.00017 12.3333Z" fill="#111111"/>
</svg>
