<svg width="32" height="32" viewBox="0 0 32 32" fill="none" xmlns="http://www.w3.org/2000/svg">
<path d="M15.9998 1C13.8929 1.00301 11.8103 1.44981 9.88767 2.3113C7.965 3.17279 6.24538 4.42965 4.84082 6H27.1559C25.7516 4.43 24.0325 3.17335 22.1103 2.31187C20.1882 1.45039 18.1061 1.0034 15.9998 1Z" fill="#E32D3C"/>
<path d="M4.84108 6C3.53648 7.45746 2.52953 9.15601 1.87695 11H30.1253C29.4712 9.15561 28.4625 7.45703 27.1561 6H4.84108Z" fill="white"/>
<path d="M1.87694 11C1.30268 12.6047 1.00612 14.2956 1 16C1.00542 17.7043 1.30124 19.3951 1.87475 21H30.1231C30.6974 19.3953 30.9939 17.7044 31 16C30.9946 14.2957 30.6988 12.6049 30.1252 11H1.87694Z" fill="#2B4896"/>
<path d="M4.84375 26C6.248 27.57 7.96716 28.8266 9.88931 29.6881C11.8115 30.5496 13.8935 30.9966 15.9999 31C18.1067 30.997 20.1893 30.5502 22.112 29.6887C24.0346 28.8272 25.7543 27.5704 27.1588 26H4.84375Z" fill="#E32D3C"/>
<path d="M1.87451 21C2.52859 22.8444 3.53725 24.543 4.84364 26H27.1587C28.4633 24.5425 29.4702 22.844 30.1228 21H1.87451Z" fill="white"/>
</svg>
