<svg width="25" height="24" viewBox="0 0 25 24" fill="none" xmlns="http://www.w3.org/2000/svg">
<g clip-path="url(#clip0_887_8254)">
<path d="M24.1836 1.07501V22.925C24.1836 23.1902 24.0686 23.4446 23.8641 23.6321C23.6595 23.8197 23.382 23.925 23.0927 23.925H6.03085C5.74152 23.925 5.46405 23.8197 5.25946 23.6321C5.05488 23.4446 4.93994 23.1902 4.93994 22.925V7.54501L10.9399 0.0750122H23.0927C23.382 0.0750122 23.6595 0.180369 23.8641 0.367906C24.0686 0.555442 24.1836 0.809796 24.1836 1.07501Z" fill="#EDEEEF"/>
<path d="M10.94 0.085022V6.50002C10.94 6.76524 10.8251 7.01959 10.6205 7.20713C10.4159 7.39466 10.1384 7.50002 9.8491 7.50002H4.96729L10.94 0.085022Z" fill="#CFD0D1"/>
<path d="M16.8091 13.7344H1.90732C1.30482 13.7344 0.816406 14.1821 0.816406 14.7344V19.7544C0.816406 20.3067 1.30482 20.7544 1.90732 20.7544H16.8091C17.4116 20.7544 17.9 20.3067 17.9 19.7544V14.7344C17.9 14.1821 17.4116 13.7344 16.8091 13.7344Z" fill="#00A5FF"/>
<path d="M5.00578 17.2675H6.51778V17.8525H5.00578V17.2675ZM5.05978 19H4.33078V15.85H6.71128V16.435H5.05978V19ZM7.2048 19V15.85H7.9338V19H7.2048ZM8.68136 19V15.85H9.41036V18.406H10.9899V19H8.68136ZM12.0677 17.119H13.5842V17.686H12.0677V17.119ZM12.1217 18.415H13.8362V19H11.3972V15.85H13.7777V16.435H12.1217V18.415Z" fill="#EDEEEF"/>
</g>
<defs>
<clipPath id="clip0_887_8254">
<rect width="24" height="24" fill="white" transform="translate(0.5)"/>
</clipPath>
</defs>
</svg>
