<svg width="24" height="24" viewBox="0 0 24 24" fill="none" xmlns="http://www.w3.org/2000/svg">
<g clip-path="url(#clip0_11_2007)">
<path d="M12 23.6364C18.4266 23.6364 23.6364 18.4266 23.6364 12C23.6364 5.57342 18.4266 0.363647 12 0.363647C5.57342 0.363647 0.363647 5.57342 0.363647 12C0.363647 18.4266 5.57342 23.6364 12 23.6364Z" fill="url(#paint0_linear_11_2007)"/>
<path d="M12 21.8909C17.4626 21.8909 21.8909 17.4626 21.8909 12C21.8909 6.53738 17.4626 2.10907 12 2.10907C6.53738 2.10907 2.10907 6.53738 2.10907 12C2.10907 17.4626 6.53738 21.8909 12 21.8909Z" fill="#073C5C"/>
<path opacity="0.1" d="M19.4909 20.9091C19.3091 21.0545 19.1273 21.2 18.9091 21.3454L18.4 21.3091C17.4182 21.2 16.4364 21.0909 15.4909 20.9818C15.0182 21.7818 14.5818 22.5818 14.1818 23.4182C13.6727 23.5272 13.1273 23.5636 12.5818 23.6C11.2 20.1091 10.3636 16.3636 10.1091 12.5091L10.0364 11.6L16.1091 12.5818L16.2182 13.0545C16.8727 15.6 17.8182 18.0363 19.0909 20.2182L19.4909 20.9091Z" fill="black"/>
<path d="M10.8 12.4727C11.0545 16.4 11.9273 20.1454 13.2727 23.5273C13.8182 22.3636 14.4 21.2727 15.0545 20.2182C16.1818 20.3636 17.3091 20.4727 18.4364 20.5818C17.2 18.4 16.1818 15.9273 15.4909 13.2364L10.8 12.4727Z" fill="url(#paint1_linear_11_2007)"/>
<path opacity="0.1" d="M13.9636 11.6L13.9273 12.5091C13.6727 16.3636 12.8364 20.1091 11.4545 23.6C10.9091 23.5636 10.3636 23.5272 9.85455 23.4182C9.45455 22.5818 9.01819 21.7818 8.54546 20.9818C7.56364 21.0909 6.58182 21.2 5.63637 21.3091L5.09091 21.3818C4.90909 21.2363 4.69091 21.0909 4.50909 20.9454L4.90909 20.2545C6.14546 18.0727 7.12728 15.6363 7.78182 13.0909L7.89091 12.6182L13.9636 11.6Z" fill="black"/>
<path d="M13.2 12.4727C12.9455 16.4 12.0728 20.1454 10.7273 23.5273C10.1818 22.3636 9.60002 21.2727 8.94548 20.2182C7.81821 20.3636 6.69093 20.4727 5.56366 20.5818C6.80002 18.4 7.8182 15.9273 8.50911 13.2364L13.2 12.4727Z" fill="url(#paint2_linear_11_2007)"/>
<path d="M12 19.2363C12 19.2363 2.07271 14.6909 6.43635 4.76361L12 3.27271L17.5636 4.76361C21.9273 14.6909 12 19.2363 12 19.2363Z" fill="url(#paint3_linear_11_2007)"/>
<path d="M12 4.87269L16.4364 6.03633C18.9091 12.6909 14.0727 16.2909 12 17.4909C9.8909 16.2909 5.05454 12.6909 7.56363 6.03633L12 4.87269ZM12 4.07269L6.98181 5.38178C3.67272 13.4181 10.4 17.5272 12 18.3636C13.6 17.5272 20.2909 13.4181 17.0182 5.38178L12 4.07269Z" fill="url(#paint4_linear_11_2007)"/>
<path d="M18.2909 8.32727C17.8182 7.85454 17.0909 7.85454 16.6182 8.32727C17.0909 7.85454 17.0909 7.12727 16.6182 6.65454C17.0909 7.12727 17.8182 7.12727 18.2909 6.65454C17.8545 7.12727 17.8545 7.85454 18.2909 8.32727Z" fill="url(#paint5_linear_11_2007)"/>
<path d="M18.2909 10.1454C17.9636 9.81816 17.4545 9.81816 17.0909 10.1454C17.4182 9.81816 17.4182 9.27271 17.0909 8.94543C17.4182 9.27271 17.9636 9.27271 18.2909 8.94543C17.9636 9.30907 17.9636 9.81816 18.2909 10.1454Z" fill="url(#paint6_linear_11_2007)"/>
<path d="M14.1014 13.3H9.92675V12.1422L11.7437 10.5873C11.907 10.4465 12.0451 10.3197 12.1577 10.207C12.2704 10.0887 12.3606 9.97604 12.4282 9.869C12.5014 9.75633 12.5521 9.64647 12.5803 9.53942C12.6141 9.43238 12.631 9.31689 12.631 9.19295V9.07464C12.631 8.96196 12.6084 8.86337 12.5634 8.77886C12.5183 8.69435 12.4591 8.62393 12.3859 8.56759C12.3127 8.51125 12.2282 8.469 12.1324 8.44083C12.0422 8.41266 11.9493 8.39858 11.8535 8.39858C11.7127 8.39858 11.5887 8.42111 11.4817 8.46618C11.3803 8.51126 11.2901 8.57323 11.2113 8.6521C11.138 8.72534 11.076 8.81266 11.0253 8.91407C10.9746 9.00985 10.9352 9.11407 10.907 9.22675L9.79999 8.80421C9.86759 8.6014 9.96055 8.40985 10.0789 8.22957C10.1972 8.04365 10.3437 7.88309 10.5183 7.74788C10.6986 7.60703 10.9098 7.49717 11.1521 7.4183C11.3944 7.33942 11.6676 7.29999 11.9718 7.29999C12.2929 7.29999 12.5775 7.34506 12.8253 7.4352C13.0732 7.52534 13.2817 7.64928 13.4507 7.80703C13.6253 7.96478 13.7577 8.15351 13.8479 8.37323C13.938 8.58731 13.9831 8.82111 13.9831 9.07464C13.9831 9.32816 13.9408 9.55914 13.8563 9.76759C13.7718 9.97604 13.6563 10.1732 13.5099 10.3591C13.369 10.5394 13.2028 10.7113 13.0113 10.8746C12.8197 11.038 12.6197 11.2042 12.4113 11.3732L11.3127 12.2352H14.1014V13.3Z" fill="#073C5C"/>
</g>
<defs>
<linearGradient id="paint0_linear_11_2007" x1="12" y1="0.469102" x2="12" y2="23.6651" gradientUnits="userSpaceOnUse">
<stop stop-color="#0BD3E3"/>
<stop offset="1" stop-color="#017CCC"/>
</linearGradient>
<linearGradient id="paint1_linear_11_2007" x1="16.5578" y1="22.6033" x2="11.24" y2="12.1985" gradientUnits="userSpaceOnUse">
<stop stop-color="#4F81CD"/>
<stop offset="1" stop-color="#2D3795"/>
</linearGradient>
<linearGradient id="paint2_linear_11_2007" x1="7.24039" y1="22.488" x2="13.0927" y2="12.304" gradientUnits="userSpaceOnUse">
<stop stop-color="#4F6BCD"/>
<stop offset="1" stop-color="#2D4A95"/>
</linearGradient>
<linearGradient id="paint3_linear_11_2007" x1="11.9873" y1="3.28471" x2="11.9873" y2="19.2349" gradientUnits="userSpaceOnUse">
<stop stop-color="#C6DEF6"/>
<stop offset="1" stop-color="#8CC3EA"/>
</linearGradient>
<linearGradient id="paint4_linear_11_2007" x1="11.9873" y1="18.3741" x2="11.9873" y2="4.08178" gradientUnits="userSpaceOnUse">
<stop stop-color="#C6DEF6"/>
<stop offset="1" stop-color="#8CC3EA"/>
</linearGradient>
<linearGradient id="paint5_linear_11_2007" x1="18.3092" y1="6.64794" x2="16.628" y2="8.32903" gradientUnits="userSpaceOnUse">
<stop stop-color="#EDF1F4"/>
<stop offset="1" stop-color="#D8DFE7"/>
</linearGradient>
<linearGradient id="paint6_linear_11_2007" x1="18.3091" y1="8.95901" x2="17.1068" y2="10.1613" gradientUnits="userSpaceOnUse">
<stop stop-color="#EDF1F4"/>
<stop offset="1" stop-color="#D8DFE7"/>
</linearGradient>
<clipPath id="clip0_11_2007">
<rect width="24" height="24" fill="white"/>
</clipPath>
</defs>
</svg>
