<svg width="24" height="24" viewBox="0 0 24 24" fill="none" xmlns="http://www.w3.org/2000/svg">
<g clip-path="url(#clip0_11_2098)">
<path d="M12 23.6364C18.4266 23.6364 23.6364 18.4266 23.6364 12C23.6364 5.57342 18.4266 0.363647 12 0.363647C5.57342 0.363647 0.363647 5.57342 0.363647 12C0.363647 18.4266 5.57342 23.6364 12 23.6364Z" fill="url(#paint0_linear_11_2098)"/>
<path d="M12 21.8909C17.4626 21.8909 21.8909 17.4626 21.8909 12C21.8909 6.53738 17.4626 2.10907 12 2.10907C6.53738 2.10907 2.10907 6.53738 2.10907 12C2.10907 17.4626 6.53738 21.8909 12 21.8909Z" fill="#7B6005"/>
<path opacity="0.1" d="M19.4909 20.9091C19.3091 21.0545 19.1273 21.2 18.9091 21.3454L18.4 21.3091C17.4182 21.2 16.4364 21.0909 15.4909 20.9818C15.0182 21.7818 14.5818 22.5818 14.1818 23.4182C13.6727 23.5272 13.1273 23.5636 12.5818 23.6C11.2 20.1091 10.3636 16.3636 10.1091 12.5091L10.0364 11.6L16.1091 12.5818L16.2182 13.0545C16.8727 15.6 17.8182 18.0363 19.0909 20.2182L19.4909 20.9091Z" fill="black"/>
<path d="M10.8 12.4727C11.0545 16.4 11.9273 20.1454 13.2727 23.5273C13.8182 22.3636 14.4 21.2727 15.0545 20.2182C16.1818 20.3636 17.3091 20.4727 18.4364 20.5818C17.2 18.4 16.1818 15.9273 15.4909 13.2364L10.8 12.4727Z" fill="url(#paint1_linear_11_2098)"/>
<path opacity="0.1" d="M13.9636 11.6L13.9273 12.5091C13.6727 16.3636 12.8364 20.1091 11.4545 23.6C10.9091 23.5636 10.3636 23.5272 9.85455 23.4182C9.45455 22.5818 9.01819 21.7818 8.54546 20.9818C7.56364 21.0909 6.58182 21.2 5.63637 21.3091L5.09091 21.3818C4.90909 21.2363 4.69091 21.0909 4.50909 20.9454L4.90909 20.2545C6.14546 18.0727 7.12728 15.6363 7.78182 13.0909L7.89091 12.6182L13.9636 11.6Z" fill="black"/>
<path d="M13.2 12.4727C12.9455 16.4 12.0728 20.1454 10.7273 23.5273C10.1818 22.3636 9.60002 21.2727 8.94548 20.2182C7.81821 20.3636 6.69093 20.4727 5.56366 20.5818C6.80002 18.4 7.8182 15.9273 8.50911 13.2364L13.2 12.4727Z" fill="url(#paint2_linear_11_2098)"/>
<path d="M12 19.2363C12 19.2363 2.07271 14.6909 6.43635 4.76361L12 3.27271L17.5636 4.76361C21.9273 14.6909 12 19.2363 12 19.2363Z" fill="url(#paint3_linear_11_2098)"/>
<path d="M12 4.87269L16.4364 6.03633C18.9091 12.6909 14.0727 16.2909 12 17.4909C9.8909 16.2909 5.05454 12.6909 7.56363 6.03633L12 4.87269ZM12 4.07269L6.98181 5.38178C3.67272 13.4181 10.4 17.5272 12 18.3636C13.6 17.5272 20.2909 13.4181 17.0182 5.38178L12 4.07269Z" fill="url(#paint4_linear_11_2098)"/>
<path d="M18.2909 8.32727C17.8182 7.85454 17.0909 7.85454 16.6182 8.32727C17.0909 7.85454 17.0909 7.12727 16.6182 6.65454C17.0909 7.12727 17.8182 7.12727 18.2909 6.65454C17.8545 7.12727 17.8545 7.85454 18.2909 8.32727Z" fill="url(#paint5_linear_11_2098)"/>
<path d="M18.2909 10.1454C17.9636 9.81816 17.4545 9.81816 17.0909 10.1454C17.4182 9.81816 17.4182 9.27271 17.0909 8.94543C17.4182 9.27271 17.9636 9.27271 18.2909 8.94543C17.9636 9.30907 17.9636 9.81816 18.2909 10.1454Z" fill="url(#paint6_linear_11_2098)"/>
<path d="M11.8443 9.69334C12.1546 9.69334 12.3789 9.63517 12.5174 9.51882C12.6615 9.39694 12.7335 9.24736 12.7335 9.07007V9.0119C12.7335 8.80137 12.6643 8.6324 12.5258 8.50497C12.3928 8.37755 12.2017 8.31384 11.9523 8.31384C11.7197 8.31384 11.5008 8.37478 11.2958 8.49666C11.0908 8.61301 10.9163 8.78198 10.7723 9.00359L9.99112 8.27229C10.1019 8.12824 10.221 7.99805 10.3485 7.8817C10.4759 7.75982 10.6199 7.65733 10.7806 7.57423C10.9413 7.48558 11.1213 7.4191 11.3208 7.37478C11.5202 7.32492 11.7446 7.29999 11.9939 7.29999C12.3041 7.29999 12.5839 7.336 12.8332 7.40802C13.0881 7.48004 13.3042 7.58531 13.4814 7.72381C13.6643 7.85677 13.8028 8.01744 13.8969 8.20581C13.9967 8.39417 14.0465 8.6047 14.0465 8.83738C14.0465 9.02021 14.0161 9.18641 13.9551 9.336C13.8997 9.48558 13.8194 9.61578 13.7141 9.72658C13.6144 9.83738 13.4981 9.9288 13.3651 10.0008C13.2321 10.0673 13.0909 10.1144 12.9413 10.1421V10.192C13.113 10.2252 13.2709 10.2806 13.415 10.3582C13.5645 10.4302 13.692 10.5244 13.7972 10.6407C13.908 10.7571 13.9939 10.8956 14.0548 11.0562C14.1158 11.2113 14.1463 11.3886 14.1463 11.5881C14.1463 11.8485 14.0936 12.0839 13.9884 12.2944C13.8831 12.505 13.7335 12.685 13.5396 12.8346C13.3457 12.9842 13.113 13.1005 12.8415 13.1836C12.5701 13.2612 12.2709 13.3 11.944 13.3C11.6504 13.3 11.39 13.2695 11.1629 13.2086C10.9357 13.1476 10.7363 13.0673 10.5645 12.9676C10.3983 12.8623 10.2515 12.7432 10.1241 12.6102C10.0022 12.4773 9.89417 12.336 9.79999 12.1864L10.7224 11.4717C10.8499 11.71 11.005 11.9066 11.1878 12.0618C11.3762 12.2113 11.6282 12.2861 11.944 12.2861C12.2266 12.2861 12.4454 12.2169 12.6005 12.0784C12.7612 11.9343 12.8415 11.7404 12.8415 11.4967V11.4468C12.8415 11.2086 12.7501 11.0313 12.5673 10.9149C12.39 10.7931 12.1435 10.7321 11.8277 10.7321H11.3041V9.69334H11.8443Z" fill="#7B6005"/>
</g>
<defs>
<linearGradient id="paint0_linear_11_2098" x1="12" y1="0.469102" x2="12" y2="23.6651" gradientUnits="userSpaceOnUse">
<stop stop-color="#E3B30B"/>
<stop offset="1" stop-color="#CC9301"/>
</linearGradient>
<linearGradient id="paint1_linear_11_2098" x1="16.5578" y1="22.6033" x2="11.24" y2="12.1985" gradientUnits="userSpaceOnUse">
<stop stop-color="#E9B020"/>
<stop offset="1" stop-color="#CD9400"/>
</linearGradient>
<linearGradient id="paint2_linear_11_2098" x1="7.24039" y1="22.488" x2="13.0927" y2="12.304" gradientUnits="userSpaceOnUse">
<stop stop-color="#F0BF12"/>
<stop offset="1" stop-color="#C08C07"/>
</linearGradient>
<linearGradient id="paint3_linear_11_2098" x1="11.9873" y1="3.28471" x2="11.9873" y2="19.2349" gradientUnits="userSpaceOnUse">
<stop stop-color="#F6F1C6"/>
<stop offset="1" stop-color="#F4D73B"/>
</linearGradient>
<linearGradient id="paint4_linear_11_2098" x1="11.9873" y1="18.3741" x2="11.9873" y2="4.08178" gradientUnits="userSpaceOnUse">
<stop stop-color="#FEF4D1"/>
<stop offset="1" stop-color="#EAD58C"/>
</linearGradient>
<linearGradient id="paint5_linear_11_2098" x1="18.3092" y1="6.64794" x2="16.628" y2="8.32903" gradientUnits="userSpaceOnUse">
<stop stop-color="#F4F3ED"/>
<stop offset="1" stop-color="#E7E6D8"/>
</linearGradient>
<linearGradient id="paint6_linear_11_2098" x1="18.3091" y1="8.95901" x2="17.1068" y2="10.1613" gradientUnits="userSpaceOnUse">
<stop stop-color="#F4F3ED"/>
<stop offset="1" stop-color="#E7E7D8"/>
</linearGradient>
<clipPath id="clip0_11_2098">
<rect width="24" height="24" fill="white"/>
</clipPath>
</defs>
</svg>
