<svg width="24" height="24" viewBox="0 0 24 24" fill="none" xmlns="http://www.w3.org/2000/svg">
<g clip-path="url(#clip0_11_2111)">
<path d="M12 23.6364C18.4266 23.6364 23.6364 18.4266 23.6364 12C23.6364 5.57342 18.4266 0.363647 12 0.363647C5.57342 0.363647 0.363647 5.57342 0.363647 12C0.363647 18.4266 5.57342 23.6364 12 23.6364Z" fill="url(#paint0_linear_11_2111)"/>
<path d="M12 21.8909C17.4626 21.8909 21.8909 17.4626 21.8909 12C21.8909 6.53738 17.4626 2.10907 12 2.10907C6.53738 2.10907 2.10907 6.53738 2.10907 12C2.10907 17.4626 6.53738 21.8909 12 21.8909Z" fill="#5C0707"/>
<path opacity="0.1" d="M19.4909 20.9091C19.3091 21.0545 19.1273 21.2 18.9091 21.3454L18.4 21.3091C17.4182 21.2 16.4364 21.0909 15.4909 20.9818C15.0182 21.7818 14.5818 22.5818 14.1818 23.4182C13.6727 23.5272 13.1273 23.5636 12.5818 23.6C11.2 20.1091 10.3636 16.3636 10.1091 12.5091L10.0364 11.6L16.1091 12.5818L16.2182 13.0545C16.8727 15.6 17.8182 18.0363 19.0909 20.2182L19.4909 20.9091Z" fill="black"/>
<path d="M10.8 12.4727C11.0545 16.4 11.9273 20.1454 13.2727 23.5273C13.8182 22.3636 14.4 21.2727 15.0545 20.2182C16.1818 20.3636 17.3091 20.4727 18.4364 20.5818C17.2 18.4 16.1818 15.9273 15.4909 13.2364L10.8 12.4727Z" fill="url(#paint1_linear_11_2111)"/>
<path opacity="0.1" d="M13.9636 11.6L13.9273 12.5091C13.6727 16.3636 12.8364 20.1091 11.4545 23.6C10.9091 23.5636 10.3636 23.5272 9.85455 23.4182C9.45455 22.5818 9.01819 21.7818 8.54546 20.9818C7.56364 21.0909 6.58182 21.2 5.63637 21.3091L5.09091 21.3818C4.90909 21.2363 4.69091 21.0909 4.50909 20.9454L4.90909 20.2545C6.14546 18.0727 7.12728 15.6363 7.78182 13.0909L7.89091 12.6182L13.9636 11.6Z" fill="black"/>
<path d="M13.2 12.4727C12.9455 16.4 12.0728 20.1454 10.7273 23.5273C10.1818 22.3636 9.60002 21.2727 8.94548 20.2182C7.81821 20.3636 6.69093 20.4727 5.56366 20.5818C6.80002 18.4 7.8182 15.9273 8.50911 13.2364L13.2 12.4727Z" fill="url(#paint2_linear_11_2111)"/>
<path d="M12 19.2363C12 19.2363 2.07271 14.6909 6.43635 4.76361L12 3.27271L17.5636 4.76361C21.9273 14.6909 12 19.2363 12 19.2363Z" fill="url(#paint3_linear_11_2111)"/>
<path d="M12 4.87269L16.4364 6.03633C18.9091 12.6909 14.0727 16.2909 12 17.4909C9.8909 16.2909 5.05454 12.6909 7.56363 6.03633L12 4.87269ZM12 4.07269L6.98181 5.38178C3.67272 13.4181 10.4 17.5272 12 18.3636C13.6 17.5272 20.2909 13.4181 17.0182 5.38178L12 4.07269Z" fill="url(#paint4_linear_11_2111)"/>
<path d="M18.2909 8.32727C17.8182 7.85454 17.0909 7.85454 16.6182 8.32727C17.0909 7.85454 17.0909 7.12727 16.6182 6.65454C17.0909 7.12727 17.8182 7.12727 18.2909 6.65454C17.8545 7.12727 17.8545 7.85454 18.2909 8.32727Z" fill="url(#paint5_linear_11_2111)"/>
<path d="M18.2909 10.1454C17.9636 9.81816 17.4545 9.81816 17.0909 10.1454C17.4182 9.81816 17.4182 9.27271 17.0909 8.94543C17.4182 9.27271 17.9636 9.27271 18.2909 8.94543C17.9636 9.30907 17.9636 9.81816 18.2909 10.1454Z" fill="url(#paint6_linear_11_2111)"/>
<path d="M12.339 13.3V12.1481H9.70001V11.0478L12.0381 7.29999H13.5682V11.151H14.3246V12.1481H13.5682V13.3H12.339ZM10.7315 11.151H12.339V8.63237H12.253L10.7315 11.151Z" fill="#5C0707"/>
</g>
<defs>
<linearGradient id="paint0_linear_11_2111" x1="12" y1="0.469102" x2="12" y2="23.6651" gradientUnits="userSpaceOnUse">
<stop stop-color="#E30B0B"/>
<stop offset="1" stop-color="#7C0101"/>
</linearGradient>
<linearGradient id="paint1_linear_11_2111" x1="16.5578" y1="22.6033" x2="11.24" y2="12.1985" gradientUnits="userSpaceOnUse">
<stop stop-color="#CD4F4F"/>
<stop offset="1" stop-color="#952D2D"/>
</linearGradient>
<linearGradient id="paint2_linear_11_2111" x1="7.24039" y1="22.488" x2="13.0927" y2="12.304" gradientUnits="userSpaceOnUse">
<stop stop-color="#CD4F4F"/>
<stop offset="1" stop-color="#952D2D"/>
</linearGradient>
<linearGradient id="paint3_linear_11_2111" x1="11.9873" y1="3.28471" x2="11.9873" y2="19.2349" gradientUnits="userSpaceOnUse">
<stop stop-color="#F6C6C6"/>
<stop offset="1" stop-color="#EA8C8C"/>
</linearGradient>
<linearGradient id="paint4_linear_11_2111" x1="11.9873" y1="18.3741" x2="11.9873" y2="4.08178" gradientUnits="userSpaceOnUse">
<stop stop-color="#F6C6C6"/>
<stop offset="1" stop-color="#EA8C8C"/>
</linearGradient>
<linearGradient id="paint5_linear_11_2111" x1="18.3092" y1="6.64794" x2="16.628" y2="8.32903" gradientUnits="userSpaceOnUse">
<stop stop-color="#F4EDED"/>
<stop offset="1" stop-color="#E7D8D8"/>
</linearGradient>
<linearGradient id="paint6_linear_11_2111" x1="18.3091" y1="8.95901" x2="17.1068" y2="10.1613" gradientUnits="userSpaceOnUse">
<stop stop-color="#F4EDED"/>
<stop offset="1" stop-color="#E7D8D8"/>
</linearGradient>
<clipPath id="clip0_11_2111">
<rect width="24" height="24" fill="white"/>
</clipPath>
</defs>
</svg>
