<svg width="24" height="24" viewBox="0 0 24 24" fill="none" xmlns="http://www.w3.org/2000/svg">
<g clip-path="url(#clip0_12_2126)">
<path d="M12 23.6364C18.4266 23.6364 23.6364 18.4266 23.6364 12C23.6364 5.57342 18.4266 0.363647 12 0.363647C5.57342 0.363647 0.363647 5.57342 0.363647 12C0.363647 18.4266 5.57342 23.6364 12 23.6364Z" fill="url(#paint0_linear_12_2126)"/>
<path d="M12 21.8909C17.4626 21.8909 21.8909 17.4626 21.8909 12C21.8909 6.53738 17.4626 2.10907 12 2.10907C6.53738 2.10907 2.10907 6.53738 2.10907 12C2.10907 17.4626 6.53738 21.8909 12 21.8909Z" fill="#290D68"/>
<path opacity="0.1" d="M19.4909 20.9091C19.3091 21.0545 19.1273 21.2 18.9091 21.3454L18.4 21.3091C17.4182 21.2 16.4364 21.0909 15.4909 20.9818C15.0182 21.7818 14.5818 22.5818 14.1818 23.4182C13.6727 23.5272 13.1273 23.5636 12.5818 23.6C11.2 20.1091 10.3636 16.3636 10.1091 12.5091L10.0364 11.6L16.1091 12.5818L16.2182 13.0545C16.8727 15.6 17.8182 18.0363 19.0909 20.2182L19.4909 20.9091Z" fill="black"/>
<path d="M10.8 12.4727C11.0545 16.4 11.9273 20.1454 13.2727 23.5273C13.8182 22.3636 14.4 21.2727 15.0545 20.2182C16.1818 20.3636 17.3091 20.4727 18.4364 20.5818C17.2 18.4 16.1818 15.9273 15.4909 13.2364L10.8 12.4727Z" fill="url(#paint1_linear_12_2126)"/>
<path opacity="0.1" d="M13.9636 11.6L13.9273 12.5091C13.6727 16.3636 12.8364 20.1091 11.4545 23.6C10.9091 23.5636 10.3636 23.5272 9.85455 23.4182C9.45455 22.5818 9.01819 21.7818 8.54546 20.9818C7.56364 21.0909 6.58182 21.2 5.63637 21.3091L5.09091 21.3818C4.90909 21.2363 4.69091 21.0909 4.50909 20.9454L4.90909 20.2545C6.14546 18.0727 7.12728 15.6363 7.78182 13.0909L7.89091 12.6182L13.9636 11.6Z" fill="black"/>
<path d="M13.2 12.4727C12.9455 16.4 12.0728 20.1454 10.7273 23.5273C10.1818 22.3636 9.60002 21.2727 8.94548 20.2182C7.81821 20.3636 6.69093 20.4727 5.56366 20.5818C6.80002 18.4 7.8182 15.9273 8.50911 13.2364L13.2 12.4727Z" fill="url(#paint2_linear_12_2126)"/>
<path d="M12 19.2363C12 19.2363 2.07271 14.6909 6.43635 4.76361L12 3.27271L17.5636 4.76361C21.9273 14.6909 12 19.2363 12 19.2363Z" fill="url(#paint3_linear_12_2126)"/>
<path d="M12 4.87269L16.4364 6.03633C18.9091 12.6909 14.0727 16.2909 12 17.4909C9.8909 16.2909 5.05454 12.6909 7.56363 6.03633L12 4.87269ZM12 4.07269L6.98181 5.38178C3.67272 13.4181 10.4 17.5272 12 18.3636C13.6 17.5272 20.2909 13.4181 17.0182 5.38178L12 4.07269Z" fill="url(#paint4_linear_12_2126)"/>
<path d="M18.2909 8.32727C17.8182 7.85454 17.0909 7.85454 16.6182 8.32727C17.0909 7.85454 17.0909 7.12727 16.6182 6.65454C17.0909 7.12727 17.8182 7.12727 18.2909 6.65454C17.8545 7.12727 17.8545 7.85454 18.2909 8.32727Z" fill="url(#paint5_linear_12_2126)"/>
<path d="M18.2909 10.1454C17.9636 9.81816 17.4545 9.81816 17.0909 10.1454C17.4182 9.81816 17.4182 9.27271 17.0909 8.94543C17.4182 9.27271 17.9636 9.27271 18.2909 8.94543C17.9636 9.30907 17.9636 9.81816 18.2909 10.1454Z" fill="url(#paint6_linear_12_2126)"/>
<path d="M13.8225 8.40703H11.1436L11.0169 10.2746H11.0845C11.1408 10.1338 11.2028 10.007 11.2704 9.89435C11.3436 9.77604 11.4281 9.67745 11.5239 9.59858C11.6197 9.51407 11.7352 9.44928 11.8704 9.40421C12.0056 9.35914 12.1662 9.33661 12.3521 9.33661C12.6056 9.33661 12.8422 9.37886 13.0619 9.46337C13.2816 9.54788 13.4732 9.67182 13.6366 9.8352C13.7999 9.99295 13.9295 10.1901 14.0253 10.4267C14.1211 10.6577 14.169 10.9197 14.169 11.2127C14.169 11.5113 14.1182 11.7901 14.0168 12.0493C13.9211 12.3028 13.7746 12.5225 13.5774 12.7084C13.3859 12.8944 13.1492 13.0408 12.8676 13.1479C12.5859 13.2493 12.2647 13.3 11.9042 13.3C11.6169 13.3 11.3634 13.269 11.1436 13.207C10.9239 13.1451 10.7296 13.0634 10.5605 12.962C10.3915 12.8549 10.2451 12.7338 10.1211 12.5986C9.99717 12.4634 9.89013 12.3197 9.79999 12.1676L10.7211 11.4408C10.8507 11.6718 11.0056 11.869 11.1859 12.0324C11.3662 12.1901 11.6084 12.269 11.9126 12.269C12.2169 12.269 12.445 12.1817 12.5971 12.007C12.7549 11.8324 12.8338 11.6014 12.8338 11.3141V11.2465C12.8338 10.976 12.7549 10.762 12.5971 10.6042C12.4394 10.4465 12.2225 10.3676 11.9464 10.3676C11.7155 10.3676 11.5239 10.4155 11.3718 10.5113C11.2253 10.6014 11.1126 10.6915 11.0338 10.7817L9.99435 10.638L10.2141 7.29999H13.8225V8.40703Z" fill="#290D68"/>
</g>
<defs>
<linearGradient id="paint0_linear_12_2126" x1="12" y1="0.469102" x2="12" y2="23.6651" gradientUnits="userSpaceOnUse">
<stop stop-color="#9462FF"/>
<stop offset="1" stop-color="#5800C8"/>
</linearGradient>
<linearGradient id="paint1_linear_12_2126" x1="16.5578" y1="22.6033" x2="11.24" y2="12.1985" gradientUnits="userSpaceOnUse">
<stop stop-color="#9D4FCD"/>
<stop offset="1" stop-color="#4E2D95"/>
</linearGradient>
<linearGradient id="paint2_linear_12_2126" x1="7.24039" y1="22.488" x2="13.0927" y2="12.304" gradientUnits="userSpaceOnUse">
<stop stop-color="#864FCD"/>
<stop offset="1" stop-color="#802D95"/>
</linearGradient>
<linearGradient id="paint3_linear_12_2126" x1="11.9873" y1="3.28471" x2="11.9873" y2="19.2349" gradientUnits="userSpaceOnUse">
<stop stop-color="#E7C6F6"/>
<stop offset="1" stop-color="#AA8CEA"/>
</linearGradient>
<linearGradient id="paint4_linear_12_2126" x1="11.9873" y1="18.3741" x2="11.9873" y2="4.08178" gradientUnits="userSpaceOnUse">
<stop stop-color="#ECC6F6"/>
<stop offset="1" stop-color="#C68CEA"/>
</linearGradient>
<linearGradient id="paint5_linear_12_2126" x1="18.3092" y1="6.64794" x2="16.628" y2="8.32903" gradientUnits="userSpaceOnUse">
<stop stop-color="#F0EDF4"/>
<stop offset="1" stop-color="#E0D8E7"/>
</linearGradient>
<linearGradient id="paint6_linear_12_2126" x1="18.3091" y1="8.95901" x2="17.1068" y2="10.1613" gradientUnits="userSpaceOnUse">
<stop stop-color="#F3EDF4"/>
<stop offset="1" stop-color="#DFD8E7"/>
</linearGradient>
<clipPath id="clip0_12_2126">
<rect width="24" height="24" fill="white"/>
</clipPath>
</defs>
</svg>
