<svg width="61" height="33" viewBox="0 0 61 33" fill="none" xmlns="http://www.w3.org/2000/svg">
<path d="M5.496 23.5H1.848V6.748H9.792C10.56 6.748 11.256 6.876 11.88 7.132C12.504 7.388 13.032 7.756 13.464 8.236C13.912 8.7 14.256 9.26 14.496 9.916C14.736 10.572 14.856 11.3 14.856 12.1C14.856 13.236 14.6 14.228 14.088 15.076C13.592 15.924 12.832 16.54 11.808 16.924L15.096 23.5H11.04L8.112 17.356H5.496V23.5ZM9.336 14.284C9.88 14.284 10.304 14.148 10.608 13.876C10.928 13.588 11.088 13.172 11.088 12.628V11.572C11.088 11.028 10.928 10.62 10.608 10.348C10.304 10.06 9.88 9.916 9.336 9.916H5.496V14.284H9.336ZM25.2679 21.388H25.1479C25.0359 21.708 24.8839 22.012 24.6919 22.3C24.5159 22.588 24.2839 22.844 23.9959 23.068C23.7079 23.292 23.3639 23.468 22.9639 23.596C22.5799 23.724 22.1319 23.788 21.6199 23.788C20.3239 23.788 19.3399 23.364 18.6679 22.516C18.0119 21.652 17.6839 20.42 17.6839 18.82V10.9H21.2359V18.508C21.2359 19.276 21.3719 19.868 21.6439 20.284C21.9159 20.7 22.3799 20.908 23.0359 20.908C23.3079 20.908 23.5799 20.868 23.8519 20.788C24.1239 20.708 24.3639 20.596 24.5719 20.452C24.7799 20.292 24.9479 20.1 25.0759 19.876C25.2039 19.652 25.2679 19.388 25.2679 19.084V10.9H28.8199V23.5H25.2679V21.388ZM32.1248 23.5V10.9H35.6768V13.036H35.8208C36.0448 12.38 36.4368 11.812 36.9968 11.332C37.5568 10.852 38.3328 10.612 39.3248 10.612C40.6208 10.612 41.5968 11.044 42.2528 11.908C42.9248 12.772 43.2608 14.004 43.2608 15.604V23.5H39.7088V15.892C39.7088 15.076 39.5808 14.476 39.3248 14.092C39.0688 13.692 38.6128 13.492 37.9568 13.492C37.6688 13.492 37.3888 13.532 37.1168 13.612C36.8448 13.676 36.5968 13.788 36.3728 13.948C36.1648 14.108 35.9968 14.308 35.8688 14.548C35.7408 14.772 35.6768 15.036 35.6768 15.34V23.5H32.1248ZM60.5336 23.5H56.3096L52.6856 17.332H52.6136L49.0856 23.5H45.1496L50.5256 14.836L45.4136 6.748H49.6616L52.9256 12.412H52.9976L56.3096 6.748H60.2456L55.0856 14.908L60.5336 23.5Z" fill="black"/>
</svg>
