<svg width="16" height="16" viewBox="0 0 16 16" fill="none" xmlns="http://www.w3.org/2000/svg">
<path d="M12 1.33333C10.3947 1.33333 8.66667 2.79333 8.66667 6C8.66667 7.15733 9.21067 8.246 9.73667 9.298C10.2147 10.254 10.6667 11.1573 10.6667 12V13.6667C10.6667 14.9533 11.7133 16 13 16C14.2867 16 15.3333 14.9533 15.3333 13.6667V12C15.3333 11.082 15.486 10.4727 15.6467 9.82867C15.8207 9.134 16 8.41533 16 7.33333C16 2.41133 13.1127 1.33333 12 1.33333ZM14 13.6667C14 14.218 13.5513 14.6667 13 14.6667C12.4487 14.6667 12 14.218 12 13.6667V12.6667H14V13.6667ZM14.3533 9.50467C14.218 10.046 14.0787 10.602 14.024 11.3333H11.942C11.7887 10.4213 11.3533 9.55 10.9293 8.702C10.4513 7.746 9.99933 6.84267 9.99933 6C9.99933 3.81133 11.0053 2.66667 11.9993 2.66667C12.026 2.66667 14.666 2.79333 14.666 7.33333C14.666 8.25133 14.5133 8.86067 14.3527 9.50467H14.3533ZM4 0C2.88733 0 0 1.078 0 6C0 7.082 0.18 7.80067 0.353333 8.49533C0.514 9.14 0.666667 9.74867 0.666667 10.6667V12.3333C0.666667 13.62 1.71333 14.6667 3 14.6667C4.28667 14.6667 5.33333 13.62 5.33333 12.3333V10.6667C5.33333 9.824 5.78533 8.92067 6.26333 7.96467C6.78933 6.912 7.33333 5.824 7.33333 4.66667C7.33333 1.46 5.60533 0 4 0ZM4 12.3333C4 12.8847 3.55133 13.3333 3 13.3333C2.44867 13.3333 2 12.8847 2 12.3333V11.3333H4V12.3333ZM5.07 7.36867C4.646 8.21667 4.21067 9.088 4.05733 10H1.976C1.92133 9.26867 1.782 8.71267 1.64667 8.17133C1.486 7.52667 1.33333 6.918 1.33333 6C1.33333 1.46 3.97333 1.33333 4 1.33333C4.994 1.33333 6 2.478 6 4.66667C6 5.50933 5.548 6.41267 5.07 7.36867Z" fill="#111111"/>
</svg>
