<svg width="16" height="16" viewBox="0 0 16 16" fill="none" xmlns="http://www.w3.org/2000/svg">
<path d="M13.6667 6.66666H12.3333C11.16 6.66666 10.186 7.53733 10.024 8.66666H7C5.82667 8.66666 4.85267 9.53733 4.69067 10.6667H2.33333C1.04667 10.6667 0 11.7133 0 13V13.6667C0 14.9533 1.04667 16 2.33333 16H13.6667C14.9533 16 16 14.9533 16 13.6667V9C16 7.71333 14.9533 6.66666 13.6667 6.66666ZM1.33333 13.6667V13C1.33333 12.4487 1.782 12 2.33333 12H4.66667V14.6667H2.33333C1.782 14.6667 1.33333 14.218 1.33333 13.6667ZM6 11C6 10.4487 6.44867 10 7 10H10V14.6667H6V11ZM14.6667 13.6667C14.6667 14.218 14.218 14.6667 13.6667 14.6667H11.3333V9C11.3333 8.44866 11.782 8 12.3333 8H13.6667C14.218 8 14.6667 8.44866 14.6667 9V13.6667ZM10.694 1.90466C10.758 1.73 10.9247 1.61333 11.1113 1.61333H12.4453L12.9173 0.288662C12.982 0.114662 13.148 -0.000671387 13.334 -0.000671387C13.52 -0.000671387 13.686 0.114662 13.7507 0.288662L14.2227 1.61333H15.5567C15.7433 1.61333 15.91 1.73 15.974 1.90533C16.038 2.08066 15.9853 2.27733 15.8427 2.398L14.7913 3.25466L15.226 4.57933C15.2853 4.75866 15.2253 4.956 15.0753 5.07133C14.9253 5.18666 14.7193 5.19466 14.5613 5.092L13.3373 4.29466L12.134 5.1C12.0593 5.15 11.9727 5.17533 11.8867 5.17533C11.7927 5.17533 11.6987 5.14533 11.62 5.08666C11.4687 4.97333 11.406 4.77733 11.4627 4.59733L11.8807 3.25666L10.824 2.39666C10.682 2.276 10.6293 2.07933 10.694 1.90466ZM5.36067 3.90466C5.42467 3.73 5.59133 3.61333 5.778 3.61333H7.112L7.584 2.28866C7.64867 2.11466 7.81467 1.99933 8.00067 1.99933C8.18667 1.99933 8.35267 2.11466 8.41733 2.28866L8.88933 3.61333H10.2233C10.41 3.61333 10.5767 3.73 10.6407 3.90533C10.7047 4.08066 10.652 4.27733 10.5093 4.398L9.458 5.25466L9.89267 6.57933C9.952 6.75866 9.892 6.956 9.742 7.07133C9.592 7.18666 9.386 7.19466 9.228 7.092L8.004 6.29466L6.80067 7.1C6.726 7.15 6.63933 7.17533 6.55333 7.17533C6.45933 7.17533 6.36533 7.14533 6.28667 7.08666C6.13533 6.97333 6.07267 6.77733 6.12933 6.59733L6.54733 5.25666L5.49067 4.39666C5.34867 4.276 5.296 4.07933 5.36067 3.90466ZM0.0273333 5.90466C0.0913333 5.73 0.258 5.61333 0.444667 5.61333H1.77867L2.25067 4.28866C2.31533 4.11466 2.48133 3.99933 2.66733 3.99933C2.85333 3.99933 3.01933 4.11466 3.084 4.28866L3.556 5.61333H4.89C5.07667 5.61333 5.24333 5.73 5.30733 5.90533C5.37133 6.08066 5.31867 6.27733 5.176 6.398L4.12467 7.25466L4.55933 8.57933C4.61867 8.75866 4.55867 8.956 4.40867 9.07133C4.25867 9.18666 4.05267 9.19466 3.89467 9.092L2.67067 8.29466L1.46733 9.1C1.39267 9.15 1.306 9.17533 1.22 9.17533C1.126 9.17533 1.032 9.14533 0.953333 9.08666C0.802 8.97333 0.739333 8.77733 0.796 8.59733L1.214 7.25666L0.157333 6.39666C0.0153333 6.276 -0.0373333 6.07933 0.0273333 5.90466Z" fill="black"/>
</svg>
