<svg width="16" height="16" viewBox="0 0 16 16" fill="none" xmlns="http://www.w3.org/2000/svg">
<path d="M8.00017 1.33331C6.68162 1.33331 5.39269 1.72431 4.29636 2.45685C3.20004 3.18939 2.34555 4.23058 1.84097 5.44876C1.33638 6.66693 1.20436 8.00738 1.4616 9.30058C1.71883 10.5938 2.35377 11.7817 3.28612 12.714C4.21847 13.6464 5.40636 14.2813 6.69956 14.5385C7.99277 14.7958 9.33322 14.6638 10.5514 14.1592C11.7696 13.6546 12.8108 12.8001 13.5433 11.7038C14.2758 10.6075 14.6668 9.31852 14.6668 7.99998C14.6649 6.23247 13.9619 4.53792 12.712 3.28811C11.4622 2.03829 9.76767 1.33528 8.00017 1.33331ZM8.00017 13.3333C6.94533 13.3333 5.91419 13.0205 5.03712 12.4345C4.16006 11.8484 3.47648 11.0155 3.07281 10.041C2.66914 9.06642 2.56352 7.99406 2.76931 6.9595C2.9751 5.92493 3.48305 4.97462 4.22893 4.22874C4.97481 3.48286 5.92512 2.97491 6.95968 2.76912C7.99425 2.56334 9.06661 2.66895 10.0411 3.07262C11.0157 3.47629 11.8486 4.15988 12.4347 5.03694C13.0207 5.914 13.3335 6.94515 13.3335 7.99998C13.3319 9.41397 12.7695 10.7696 11.7696 11.7694C10.7698 12.7693 9.41416 13.3317 8.00017 13.3333ZM8.00017 7.66665C7.82336 7.66665 7.65379 7.73688 7.52876 7.86191C7.40374 7.98693 7.3335 8.1565 7.3335 8.33331V10.3333C7.3335 10.5101 7.40374 10.6797 7.52876 10.8047C7.65379 10.9297 7.82336 11 8.00017 11C8.17698 11 8.34655 10.9297 8.47157 10.8047C8.59659 10.6797 8.66683 10.5101 8.66683 10.3333V8.33331C8.66683 8.1565 8.59659 7.98693 8.47157 7.86191C8.34655 7.73688 8.17698 7.66665 8.00017 7.66665ZM8.00017 4.99998C7.83535 4.99998 7.67423 5.04885 7.53719 5.14042C7.40015 5.23199 7.29334 5.36214 7.23027 5.51441C7.16719 5.66668 7.15069 5.83424 7.18285 5.99589C7.215 6.15754 7.29437 6.30603 7.41091 6.42257C7.52745 6.53911 7.67594 6.61848 7.83759 6.65063C7.99924 6.68279 8.1668 6.66629 8.31907 6.60321C8.47134 6.54014 8.60149 6.43333 8.69306 6.29629C8.78463 6.15925 8.8335 5.99813 8.8335 5.83331C8.8335 5.6123 8.7457 5.40034 8.58942 5.24406C8.43314 5.08778 8.22118 4.99998 8.00017 4.99998Z" fill="#777777"/>
</svg>
